<?xml version="1.0" encoding="utf-8"?>
<svg xmlns="http://www.w3.org/2000/svg" xmlns:xlink="http://www.w3.org/1999/xlink" style="margin: auto; background: rgb(241, 242, 243); display: block; shape-rendering: auto;" width="311px" height="311px" viewBox="0 0 100 100" preserveAspectRatio="xMidYMid">
<g transform="rotate(0 50 50)">
  <rect x="35.5" y="35" rx="4.64" ry="4" width="29" height="8" fill="#5b7ee1">
    <animate attributeName="opacity" values="1;0" keyTimes="0;1" dur="0.6578947368421053s" begin="-0.6279904306220097s" repeatCount="indefinite"></animate>
  </rect>
</g><g transform="rotate(16.363636363636363 50 50)">
  <rect x="35.5" y="35" rx="4.64" ry="4" width="29" height="8" fill="#5b7ee1">
    <animate attributeName="opacity" values="1;0" keyTimes="0;1" dur="0.6578947368421053s" begin="-0.5980861244019139s" repeatCount="indefinite"></animate>
  </rect>
</g><g transform="rotate(32.72727272727273 50 50)">
  <rect x="35.5" y="35" rx="4.64" ry="4" width="29" height="8" fill="#5b7ee1">
    <animate attributeName="opacity" values="1;0" keyTimes="0;1" dur="0.6578947368421053s" begin="-0.5681818181818182s" repeatCount="indefinite"></animate>
  </rect>
</g><g transform="rotate(49.09090909090909 50 50)">
  <rect x="35.5" y="35" rx="4.64" ry="4" width="29" height="8" fill="#5b7ee1">
    <animate attributeName="opacity" values="1;0" keyTimes="0;1" dur="0.6578947368421053s" begin="-0.5382775119617226s" repeatCount="indefinite"></animate>
  </rect>
</g><g transform="rotate(65.45454545454545 50 50)">
  <rect x="35.5" y="35" rx="4.64" ry="4" width="29" height="8" fill="#5b7ee1">
    <animate attributeName="opacity" values="1;0" keyTimes="0;1" dur="0.6578947368421053s" begin="-0.5083732057416268s" repeatCount="indefinite"></animate>
  </rect>
</g><g transform="rotate(81.81818181818181 50 50)">
  <rect x="35.5" y="35" rx="4.64" ry="4" width="29" height="8" fill="#5b7ee1">
    <animate attributeName="opacity" values="1;0" keyTimes="0;1" dur="0.6578947368421053s" begin="-0.47846889952153115s" repeatCount="indefinite"></animate>
  </rect>
</g><g transform="rotate(98.18181818181819 50 50)">
  <rect x="35.5" y="35" rx="4.64" ry="4" width="29" height="8" fill="#5b7ee1">
    <animate attributeName="opacity" values="1;0" keyTimes="0;1" dur="0.6578947368421053s" begin="-0.44856459330143544s" repeatCount="indefinite"></animate>
  </rect>
</g><g transform="rotate(114.54545454545455 50 50)">
  <rect x="35.5" y="35" rx="4.64" ry="4" width="29" height="8" fill="#5b7ee1">
    <animate attributeName="opacity" values="1;0" keyTimes="0;1" dur="0.6578947368421053s" begin="-0.41866028708133973s" repeatCount="indefinite"></animate>
  </rect>
</g><g transform="rotate(130.9090909090909 50 50)">
  <rect x="35.5" y="35" rx="4.64" ry="4" width="29" height="8" fill="#5b7ee1">
    <animate attributeName="opacity" values="1;0" keyTimes="0;1" dur="0.6578947368421053s" begin="-0.388755980861244s" repeatCount="indefinite"></animate>
  </rect>
</g><g transform="rotate(147.27272727272728 50 50)">
  <rect x="35.5" y="35" rx="4.64" ry="4" width="29" height="8" fill="#5b7ee1">
    <animate attributeName="opacity" values="1;0" keyTimes="0;1" dur="0.6578947368421053s" begin="-0.35885167464114837s" repeatCount="indefinite"></animate>
  </rect>
</g><g transform="rotate(163.63636363636363 50 50)">
  <rect x="35.5" y="35" rx="4.64" ry="4" width="29" height="8" fill="#5b7ee1">
    <animate attributeName="opacity" values="1;0" keyTimes="0;1" dur="0.6578947368421053s" begin="-0.32894736842105265s" repeatCount="indefinite"></animate>
  </rect>
</g><g transform="rotate(180 50 50)">
  <rect x="35.5" y="35" rx="4.64" ry="4" width="29" height="8" fill="#5b7ee1">
    <animate attributeName="opacity" values="1;0" keyTimes="0;1" dur="0.6578947368421053s" begin="-0.29904306220095694s" repeatCount="indefinite"></animate>
  </rect>
</g><g transform="rotate(196.36363636363637 50 50)">
  <rect x="35.5" y="35" rx="4.64" ry="4" width="29" height="8" fill="#5b7ee1">
    <animate attributeName="opacity" values="1;0" keyTimes="0;1" dur="0.6578947368421053s" begin="-0.2691387559808613s" repeatCount="indefinite"></animate>
  </rect>
</g><g transform="rotate(212.72727272727272 50 50)">
  <rect x="35.5" y="35" rx="4.64" ry="4" width="29" height="8" fill="#5b7ee1">
    <animate attributeName="opacity" values="1;0" keyTimes="0;1" dur="0.6578947368421053s" begin="-0.23923444976076558s" repeatCount="indefinite"></animate>
  </rect>
</g><g transform="rotate(229.0909090909091 50 50)">
  <rect x="35.5" y="35" rx="4.64" ry="4" width="29" height="8" fill="#5b7ee1">
    <animate attributeName="opacity" values="1;0" keyTimes="0;1" dur="0.6578947368421053s" begin="-0.20933014354066987s" repeatCount="indefinite"></animate>
  </rect>
</g><g transform="rotate(245.45454545454547 50 50)">
  <rect x="35.5" y="35" rx="4.64" ry="4" width="29" height="8" fill="#5b7ee1">
    <animate attributeName="opacity" values="1;0" keyTimes="0;1" dur="0.6578947368421053s" begin="-0.17942583732057418s" repeatCount="indefinite"></animate>
  </rect>
</g><g transform="rotate(261.8181818181818 50 50)">
  <rect x="35.5" y="35" rx="4.64" ry="4" width="29" height="8" fill="#5b7ee1">
    <animate attributeName="opacity" values="1;0" keyTimes="0;1" dur="0.6578947368421053s" begin="-0.14952153110047847s" repeatCount="indefinite"></animate>
  </rect>
</g><g transform="rotate(278.1818181818182 50 50)">
  <rect x="35.5" y="35" rx="4.64" ry="4" width="29" height="8" fill="#5b7ee1">
    <animate attributeName="opacity" values="1;0" keyTimes="0;1" dur="0.6578947368421053s" begin="-0.11961722488038279s" repeatCount="indefinite"></animate>
  </rect>
</g><g transform="rotate(294.54545454545456 50 50)">
  <rect x="35.5" y="35" rx="4.64" ry="4" width="29" height="8" fill="#5b7ee1">
    <animate attributeName="opacity" values="1;0" keyTimes="0;1" dur="0.6578947368421053s" begin="-0.08971291866028709s" repeatCount="indefinite"></animate>
  </rect>
</g><g transform="rotate(310.90909090909093 50 50)">
  <rect x="35.5" y="35" rx="4.64" ry="4" width="29" height="8" fill="#5b7ee1">
    <animate attributeName="opacity" values="1;0" keyTimes="0;1" dur="0.6578947368421053s" begin="-0.059808612440191394s" repeatCount="indefinite"></animate>
  </rect>
</g><g transform="rotate(327.27272727272725 50 50)">
  <rect x="35.5" y="35" rx="4.64" ry="4" width="29" height="8" fill="#5b7ee1">
    <animate attributeName="opacity" values="1;0" keyTimes="0;1" dur="0.6578947368421053s" begin="-0.029904306220095697s" repeatCount="indefinite"></animate>
  </rect>
</g><g transform="rotate(343.6363636363636 50 50)">
  <rect x="35.5" y="35" rx="4.64" ry="4" width="29" height="8" fill="#5b7ee1">
    <animate attributeName="opacity" values="1;0" keyTimes="0;1" dur="0.6578947368421053s" begin="0s" repeatCount="indefinite"></animate>
  </rect>
</g>
<!-- [ldio] generated by https://loading.io/ --></svg>